<svg xmlns="http://www.w3.org/2000/svg" viewBox="0 0 255.71 63.83"><defs><style>.cls-1{fill:#3983e9;stroke:#3983e9;}</style></defs><title>Ресурс 1</title><g id="Слой_2" data-name="Слой 2"><g id="Слой_1-2" data-name="Слой 1"><path class="cls-1" d="M138,24.65a8.34,8.34,0,0,0,4.19,1.18c2.38,0,3.78-1.26,3.78-3.09s-1-2.65-3.41-3.59c-2.95-1-4.78-2.58-4.78-5.13,0-2.82,2.34-4.91,5.86-4.91a8.12,8.12,0,0,1,4,.89L147,11.9a7.24,7.24,0,0,0-3.44-.86c-2.46,0-3.4,1.48-3.4,2.71,0,1.69,1.1,2.53,3.59,3.49,3.06,1.18,4.62,2.66,4.62,5.31s-2.07,5.21-6.33,5.21a9.4,9.4,0,0,1-4.62-1.15Zm19.13-13.26h-5.5v-2H165v2h-5.52v16.1h-2.37Zm13,10.41-1.88,5.69h-2.42l6.15-18.08h2.82l6.17,18.08h-2.5l-1.93-5.69ZM176,20l-1.77-5.21c-.41-1.18-.67-2.25-.94-3.3h-.06c-.26,1.08-.56,2.18-.91,3.28L170.56,20Zm22,6.92a11.6,11.6,0,0,1-4.78.86c-5.09,0-8.93-3.22-8.93-9.15,0-5.66,3.84-9.5,9.44-9.5a9.58,9.58,0,0,1,4.3.81l-.57,1.9a8.45,8.45,0,0,0-3.65-.75c-4.24,0-7.05,2.71-7.05,7.46,0,4.43,2.55,7.27,6.95,7.27a9.29,9.29,0,0,0,3.81-.75ZM203,9.41h2.34v8.72h.08c.48-.7,1-1.34,1.42-1.93l5.53-6.79h2.9l-6.55,7.67,7.06,10.41H213l-5.95-8.88-1.72,2v6.89H203Zm23.7,18.08V26l1.85-1.79c4.46-4.24,6.47-6.5,6.5-9.13a3.12,3.12,0,0,0-3.47-3.41,6,6,0,0,0-3.7,1.48l-.75-1.66a7.67,7.67,0,0,1,4.94-1.77c3.76,0,5.34,2.57,5.34,5.07,0,3.22-2.34,5.82-6,9.36L230,25.48v.05h7.84v2Zm23.21,0V22.74h-8.1V21.19l7.78-11.14h2.55V20.89h2.44v1.85h-2.44v4.75Zm0-6.6V15.07c0-.91,0-1.83.09-2.74h-.09c-.53,1-1,1.77-1.44,2.58l-4.27,5.93v.05ZM136.88,40.57a25.73,25.73,0,0,1,3.88-.3c2.61,0,4.48.61,5.71,1.76a6.51,6.51,0,0,1,2,5.07,7.48,7.48,0,0,1-2,5.49c-1.32,1.32-3.5,2-6.24,2a28.13,28.13,0,0,1-3.31-.17Zm1.82,12.48a12.23,12.23,0,0,0,1.85.1c3.89,0,6-2.18,6-6,0-3.33-1.87-5.44-5.72-5.44a10.09,10.09,0,0,0-2.14.19Zm19.35,1.44-.15-1.27h-.06a3.8,3.8,0,0,1-3.1,1.5,2.89,2.89,0,0,1-3.1-2.91c0-2.45,2.18-3.79,6.09-3.77v-.21a2.09,2.09,0,0,0-2.3-2.34,5.06,5.06,0,0,0-2.64.75L152.37,45a6.27,6.27,0,0,1,3.33-.9c3.1,0,3.86,2.11,3.86,4.14v3.79a14.93,14.93,0,0,0,.16,2.43Zm-.27-5.17c-2,0-4.3.31-4.3,2.28a1.63,1.63,0,0,0,1.74,1.76,2.52,2.52,0,0,0,2.45-1.69,2,2,0,0,0,.11-.59Zm8.56-7.87v2.91H169v1.4h-2.64v5.47c0,1.25.35,2,1.38,2a4.31,4.31,0,0,0,1.07-.12l.08,1.38a4.41,4.41,0,0,1-1.63.25,2.56,2.56,0,0,1-2-.77,3.79,3.79,0,0,1-.71-2.64V45.76H163v-1.4h1.57V41.93Zm12,13-.15-1.27h-.06a3.8,3.8,0,0,1-3.1,1.5,2.88,2.88,0,0,1-3.1-2.91c0-2.45,2.17-3.79,6.09-3.77v-.21a2.09,2.09,0,0,0-2.3-2.34,5.06,5.06,0,0,0-2.64.75L172.66,45a6.24,6.24,0,0,1,3.33-.9c3.1,0,3.85,2.11,3.85,4.14v3.79a13.82,13.82,0,0,0,.17,2.43Zm-.28-5.17c-2,0-4.29.31-4.29,2.28a1.63,1.63,0,0,0,1.74,1.76A2.52,2.52,0,0,0,178,51.67a2,2,0,0,0,.1-.59ZM200.53,54a9,9,0,0,1-3.73.67c-4,0-7-2.51-7-7.14a7,7,0,0,1,7.37-7.41,7.56,7.56,0,0,1,3.35.63l-.44,1.48a6.73,6.73,0,0,0-2.85-.58c-3.31,0-5.51,2.11-5.51,5.82,0,3.45,2,5.67,5.43,5.67a7.37,7.37,0,0,0,3-.58Zm4.68-4.27a3.26,3.26,0,0,0,3.48,3.52,6.56,6.56,0,0,0,2.81-.53l.31,1.32a8.09,8.09,0,0,1-3.37.63c-3.12,0-5-2.05-5-5.11s1.81-5.46,4.76-5.46c3.31,0,4.19,2.91,4.19,4.77a5.34,5.34,0,0,1-.07.86Zm5.41-1.32c0-1.17-.48-3-2.56-3-1.86,0-2.68,1.71-2.83,3Zm5.73-1.34c0-1.05,0-1.9-.08-2.74h1.63L218,46h0a3.72,3.72,0,0,1,3.35-1.9c1.4,0,3.58.83,3.58,4.31v6.05h-1.84V48.65c0-1.63-.61-3-2.35-3a2.61,2.61,0,0,0-2.47,1.88,2.73,2.73,0,0,0-.13.86v6.09h-1.84Zm15.43-5.65v2.91h2.64v1.4h-2.64v5.47c0,1.25.36,2,1.38,2a4.31,4.31,0,0,0,1.07-.12l.08,1.38a4.41,4.41,0,0,1-1.63.25,2.56,2.56,0,0,1-2-.77,3.79,3.79,0,0,1-.71-2.64V45.76h-1.57v-1.4H230V41.93Zm7.29,8.31a3.25,3.25,0,0,0,3.47,3.52,6.56,6.56,0,0,0,2.81-.53l.31,1.32a8.09,8.09,0,0,1-3.37.63c-3.12,0-5-2.05-5-5.11s1.8-5.46,4.75-5.46c3.31,0,4.19,2.91,4.19,4.77a7.27,7.27,0,0,1-.06.86Zm5.4-1.32c0-1.17-.48-3-2.56-3-1.86,0-2.68,1.71-2.82,3Zm5.73-.92c0-1.19,0-2.22-.08-3.16h1.61l.07,2h.08a3,3,0,0,1,2.81-2.22,2.12,2.12,0,0,1,.52.06v1.74a2.93,2.93,0,0,0-.63-.06,2.58,2.58,0,0,0-2.47,2.36,5.47,5.47,0,0,0-.08.86v5.4H250.2ZM.5.5V26.33h106V.5ZM95.42,18.42H11.58v-10H95.42ZM.5,37.5V63.33h106V37.5ZM95.42,55.42H11.58v-10H95.42Z"/></g></g></svg>