<?xml version="1.0" encoding="utf-8"?>
<!-- Generator: Adobe Illustrator 22.1.0, SVG Export Plug-In . SVG Version: 6.00 Build 0)  -->
<svg version="1.1" id="Слой_1" xmlns="http://www.w3.org/2000/svg" xmlns:xlink="http://www.w3.org/1999/xlink" x="0px" y="0px"
	 viewBox="0 0 255.7 63.8" style="enable-background:new 0 0 255.7 63.8;" xml:space="preserve">
<style type="text/css">
	.st0{fill:#3983E9;}
	.st1{fill:#FF5B3E;}
</style>
<title>Ресурс 1</title>
<g>
	<path class="st0" d="M166.8,40.8l-2.8,0.8v2.3h-1.6v2.4h1.5l0,5c-0.1,1.1,0.2,2.1,0.8,3c0.6,0.6,1.4,0.9,2.2,0.9c0.1,0,0.1,0,0.2,0
		c0.6,0,1.2-0.1,1.8-0.3l0.4-0.1l-0.1-2.4l-0.6,0.1c-0.3,0.1-0.6,0.1-0.9,0.1c-0.4,0-0.9,0.1-0.9-1.5v-5h2.6v-2.4h-2.7V40.8z"/>
	<path class="st0" d="M160.1,52v-3.8c0-3-1.5-4.6-4.4-4.6c-1.3,0-2.5,0.3-3.6,1l-0.3,0.2l0.8,2.2l0.5-0.3c0.7-0.4,1.5-0.7,2.4-0.7
		c0.1,0,0.3,0,0.4,0c0.8,0.1,1.4,0.7,1.4,1.6c-2.3,0.1-4,0.6-5,1.6c-0.7,0.7-1.1,1.6-1.1,2.6c0,0.1,0,0.2,0,0.3
		c0.1,0.9,0.5,1.7,1.2,2.3c0.6,0.5,1.4,0.8,2.2,0.8c0.1,0,0.2,0,0.2,0c1,0,2-0.3,2.8-1l0.1,0.7l2.7,0l-0.1-0.6
		C160.1,53.6,160,52.8,160.1,52z M155.2,52.9c-0.1,0-0.1,0-0.2,0c-0.6-0.1-1.1-0.6-1-1.3c0-0.7,0.4-1.7,3.3-1.8v1.2
		c0,0.2,0,0.3-0.1,0.4C156.9,52.3,156.1,52.9,155.2,52.9z"/>
	<path class="st0" d="M0,26.8h107V0H0V26.8z M94.9,8.9v9H12.1v-9H94.9z"/>
	<polygon class="st0" points="156.6,28 160,28 160,11.9 165.5,11.9 165.5,8.9 151.1,8.9 151.1,11.9 156.6,11.9 	"/>
	<path class="st0" d="M142.2,25.3c-1.4,0-2.7-0.4-3.9-1.1l-0.6-0.3l-0.9,3l0.4,0.2c1.5,0.8,3.1,1.2,4.7,1.2c0,0,0.1,0,0.1,0
		c4.7,0,6.8-3,6.8-5.7c0-2.7-1.5-4.4-4.9-5.8c-2.5-1-3.3-1.7-3.3-3c0-1.1,0.9-2.2,2.9-2.2c1.1,0,2.2,0.3,3.2,0.8l0.5,0.3l1-2.9
		l-0.4-0.2c-1.3-0.7-2.8-1-4.2-0.9c-3.7,0-6.4,2.2-6.4,5.4c0,2.6,1.7,4.4,5.1,5.6c2.4,0.9,3.1,1.6,3.1,3.1
		C145.5,24.3,144.2,25.3,142.2,25.3z"/>
	<path class="st0" d="M146.8,41.7c-1.3-1.3-3.4-1.9-6.1-1.9c-1.3,0-2.7,0.1-4,0.3l-0.4,0.1l0,14.7l0.4,0c1,0.1,2.1,0.2,3.1,0.2
		c3,0,5.4-0.7,6.8-2.2c1.5-1.6,2.2-3.7,2.1-5.8C149.1,45.1,148.3,43.1,146.8,41.7z M146,47.2c0,3.6-1.9,5.5-5.5,5.5
		c-0.4,0-0.9,0-1.3,0l0-10.3c0.5-0.1,1.1-0.1,1.6-0.1C144.2,42.2,146,43.9,146,47.2z"/>
	<path class="st0" d="M0,63.8h107V37H0V63.8z M94.9,45.9v9H12.1v-9H94.9z"/>
	<path class="st0" d="M242,43.6c-3.1,0-5.3,2.5-5.3,6c0,3.4,2.2,5.6,5.5,5.6c0.1,0,0.2,0,0.3,0c1.1,0,2.3-0.2,3.3-0.7l0.4-0.2
		l-0.5-2.3l-0.5,0.2c-0.8,0.3-1.7,0.5-2.6,0.5c-0.1,0-0.3,0-0.4,0c-0.7-0.1-1.4-0.4-1.9-1c-0.4-0.4-0.6-1-0.6-1.5h7l0.1-0.4
		c0-0.3,0.1-0.6,0.1-0.9C246.7,46.2,245.3,43.6,242,43.6z M243.9,47.9h-4.2c0.2-0.9,0.9-2,2.2-2C243.4,45.9,243.8,47.1,243.9,47.9z"
		/>
	<path class="st0" d="M232.3,40.8l-2.8,0.8v2.3h-1.6v2.4h1.6l0,5c-0.1,1.1,0.2,2.1,0.8,3c0.6,0.6,1.4,0.9,2.2,0.9c0.1,0,0.1,0,0.2,0
		c0.6,0,1.2-0.1,1.8-0.3l0.4-0.1l-0.1-2.4l-0.6,0.1c-0.3,0.1-0.6,0.1-0.9,0.1c-0.4,0-0.9,0.1-0.9-1.5v-5h2.6v-2.4h-2.6V40.8z"/>
	<path class="st1" d="M238.3,25h-7.1l0.6-0.5c3.6-3.5,6.2-6.2,6.2-9.7c0-2.8-1.8-5.6-5.8-5.6c0,0,0,0,0,0c-1.9,0-3.8,0.7-5.2,1.9
		l-0.3,0.2l1.2,2.6l0.5-0.4c0.9-0.8,2.1-1.3,3.4-1.4c0.2,0,0.4,0,0.6,0c0.7,0.1,1.3,0.4,1.8,0.9c0.4,0.5,0.6,1.2,0.6,2
		c0,2.4-1.9,4.5-6.3,8.8l-2,1.9V28l12.1,0V25z"/>
	<path class="st0" d="M221.4,43.6c-1.1,0-2.1,0.4-2.9,1.1l-0.1-0.8h-2.7l0.1,0.5c0.1,0.8,0.1,1.6,0.1,2.7l-0.1,7.9h2.8v-6.6
		c0-0.2,0-0.5,0.1-0.7c0.3-0.9,1.1-1.5,2-1.5c1.2,0,1.8,0.8,1.8,2.5V55h2.8v-6.5C225.4,44.9,223.2,43.6,221.4,43.6z"/>
	<path class="st0" d="M255.3,43.7c-0.2-0.1-0.4-0.1-0.7-0.1c-1,0-1.8,0.4-2.4,1.1l0-0.9h-2.6l0,0.5c0.1,0.9,0.1,1.9,0.1,3.1V55h2.8
		v-5.9c0-0.3,0-0.5,0.1-0.8c0.1-1,0.9-1.9,2-1.9c0.2,0,0.4,0,0.5,0l0.6,0.1v-2.7L255.3,43.7z"/>
	<path class="st1" d="M252.6,28v-4.8h2.4v-2.9h-2.4V9.5h-3.3l-8,11.5v2.2h8.1V28H252.6z M245.1,20.4l3.8-5.2
		c0.2-0.3,0.3-0.6,0.5-0.9c0,0.3,0,0.5,0,0.8v5.3H245.1z"/>
	<path class="st0" d="M200,52.1c-0.9,0.4-1.8,0.6-2.8,0.5c-3.1,0-4.9-1.9-4.9-5.2c0-3.3,1.9-5.3,5-5.3c0.9,0,1.8,0.2,2.6,0.5
		l0.5,0.2l0.7-2.5l-0.4-0.2c-1.1-0.5-2.4-0.7-3.5-0.7c-0.3,0-0.6,0-0.9,0c-2,0.1-3.8,1-5.2,2.5s-2,3.4-1.9,5.4
		c0,4.6,2.9,7.6,7.5,7.6c0.1,0,0.2,0,0.3,0c1.2,0,2.5-0.2,3.6-0.7l0.4-0.2l-0.6-2.4L200,52.1z"/>
	<path class="st0" d="M208.2,43.6c-3.1,0-5.3,2.5-5.3,6c0,3.4,2.2,5.6,5.5,5.6c0.1,0,0.2,0,0.3,0c1.1,0,2.3-0.2,3.3-0.7l0.4-0.2
		l-0.5-2.3l-0.5,0.2c-0.8,0.3-1.7,0.5-2.6,0.5c-0.1,0-0.3,0-0.4,0c-1.4-0.1-2.4-1.2-2.5-2.5h7l0.1-0.4c0.1-0.3,0.1-0.6,0.1-0.9
		C212.9,46.2,211.4,43.6,208.2,43.6z M210.1,47.9h-4.3c0.2-0.8,0.8-2,2.2-2C209.6,45.9,210,47.1,210.1,47.9z"/>
	<path class="st0" d="M171.6,8.9L165.1,28h3.5l1.9-5.7h5.7l1.9,5.7h3.6l-6.5-19.1H171.6z M175.3,19.5h-4l1.5-4.6
		c0.2-0.5,0.3-1,0.5-1.6c0.1,0.5,0.3,1,0.5,1.6L175.3,19.5z"/>
	<path class="st0" d="M193.6,28.3c1.6,0,3.1-0.3,4.6-0.9l0.4-0.2l-0.7-2.8l-0.5,0.2c-1.1,0.5-2.3,0.7-3.6,0.7c-4,0-6.5-2.5-6.5-6.8
		c0-4.4,2.4-7,6.6-7c1.2,0,2.4,0.2,3.4,0.7l0.5,0.2l0.9-2.9l-0.4-0.2c-1.4-0.6-3-0.9-4.5-0.9c-5.9,0-9.9,4.1-9.9,10
		c0,5.9,3.7,9.6,9.4,9.6C193.3,28.3,193.5,28.3,193.6,28.3z"/>
	<path class="st0" d="M205.8,20.8l1.2-1.4l5.7,8.6h4l-7.4-10.9l7-8.2h-4.2l-5.7,7c-0.2,0.2-0.4,0.5-0.6,0.8c0,0,0,0,0,0V8.9h-3.3V28
		h3.3V20.8z"/>
	<path class="st0" d="M180.3,52v-3.8c0-3-1.5-4.6-4.3-4.6c-1.3,0-2.5,0.3-3.6,1l-0.3,0.2l0.8,2.2l0.5-0.3c0.7-0.4,1.5-0.7,2.4-0.7
		c0.1,0,0.3,0,0.4,0c0.4,0.1,0.8,0.3,1.1,0.6c0.2,0.3,0.3,0.6,0.3,1c-2.3,0.1-4,0.6-5,1.6c-0.7,0.7-1.1,1.6-1.1,2.6
		c0,0.1,0,0.2,0,0.3c0.1,0.9,0.5,1.7,1.2,2.3c0.6,0.5,1.4,0.8,2.2,0.8c0.1,0,0.2,0,0.2,0c1,0,2-0.3,2.8-1l0.1,0.7l2.7,0l-0.1-0.6
		C180.4,53.6,180.3,52.8,180.3,52z M175.5,52.8c-0.1,0-0.1,0-0.2,0c-0.6-0.1-1.1-0.6-1-1.3c0-0.7,0.4-1.7,3.3-1.8l0,1.3
		c0,0.1,0,0.3-0.1,0.4C177.2,52.3,176.4,52.9,175.5,52.8z"/>
</g>
</svg>
