<svg xmlns="http://www.w3.org/2000/svg" viewBox="0 0 56 56"><defs><style>.cls-1{fill:#ff5b3e;}</style></defs><title>Ресурс 11</title><g id="Слой_2" data-name="Слой 2"><g id="Слой_1-2" data-name="Слой 1"><path class="cls-1" d="M28,0A28,28,0,1,0,56,28,28,28,0,0,0,28,0Zm0,52.91A24.91,24.91,0,1,1,52.91,28,24.93,24.93,0,0,1,28,52.91Z"/><path class="cls-1" d="M35.69,23h-.18a9.4,9.4,0,0,0-16.83,1.74,6.33,6.33,0,0,0,.78,12.62H35.69a7.19,7.19,0,0,0,0-14.37Zm0,11.76H19.46a3.73,3.73,0,0,1,0-7.45l.2,0h0a1.34,1.34,0,0,0,1.26-1,6.77,6.77,0,0,1,6.59-5.17,6.7,6.7,0,0,1,5.23,2.48,7.09,7.09,0,0,0-2.48,1.83,1.29,1.29,0,0,0-.31.95,1.22,1.22,0,0,0,.43.87,1.33,1.33,0,0,0,1.85-.11,4.55,4.55,0,0,1,2.81-1.51l.24,0,.4,0a4.57,4.57,0,0,1,0,9.14Z"/></g></g></svg>