<svg xmlns="http://www.w3.org/2000/svg" viewBox="0 0 46 46"><defs><style>.cls-1{fill:#3882e7;}.cls-2{fill:#fff;}</style></defs><title>Ресурс 2</title><g id="Слой_2" data-name="Слой 2"><g id="Слой_1-2" data-name="Слой 1"><circle class="cls-1" cx="23" cy="23" r="23"/><path class="cls-2" d="M27.16,14.68H25a3.79,3.79,0,0,0-4,4.09v1.89H18.84a.34.34,0,0,0-.34.34v2.74a.34.34,0,0,0,.34.34H21V31a.34.34,0,0,0,.34.34h2.83a.34.34,0,0,0,.34-.34v-6.9h2.54a.34.34,0,0,0,.34-.34V21a.37.37,0,0,0-.1-.24.35.35,0,0,0-.24-.1H24.52v-1.6c0-.77.18-1.16,1.19-1.16h1.45a.34.34,0,0,0,.34-.34V15a.34.34,0,0,0-.34-.34Z"/></g></g></svg>