<svg xmlns="http://www.w3.org/2000/svg" viewBox="0 0 46 46"><defs><style>.cls-1{fill:#3882e7;}.cls-2{fill:#fff;}</style></defs><title>Ресурс 1</title><g id="Слой_2" data-name="Слой 2"><g id="Слой_1-2" data-name="Слой 1"><circle class="cls-1" cx="23" cy="23" r="23"/><path class="cls-2" d="M19.72,24.45h3.44A4.37,4.37,0,1,1,19,18.63,4.32,4.32,0,0,1,22,19.77a.48.48,0,0,0,.64,0l1.27-1.18a.49.49,0,0,0,0-.69A7,7,0,0,0,19.18,16,7,7,0,1,0,19,30a7,7,0,0,0,7-6.64s0-1.62,0-1.62H19.72a.47.47,0,0,0-.47.47V24A.47.47,0,0,0,19.72,24.45Z"/><path class="cls-2" d="M31.9,21.94V20.25a.41.41,0,0,0-.42-.41H30.06a.41.41,0,0,0-.41.41v1.69H28a.41.41,0,0,0-.41.41v1.42a.41.41,0,0,0,.41.42h1.69v1.68a.42.42,0,0,0,.41.42h1.42a.42.42,0,0,0,.42-.42V24.19h1.69a.42.42,0,0,0,.41-.42V22.35a.41.41,0,0,0-.41-.41Z"/></g></g></svg>