<svg xmlns="http://www.w3.org/2000/svg" viewBox="0 0 56 56"><defs><style>.cls-1{fill:#ff5b3e;}</style></defs><title>Ресурс 17</title><g id="Слой_2" data-name="Слой 2"><g id="Слой_1-2" data-name="Слой 1"><path class="cls-1" d="M28,2.4A25.6,25.6,0,1,1,2.4,28,25.62,25.62,0,0,1,28,2.4M28,0A28,28,0,1,0,56,28,28,28,0,0,0,28,0ZM20.84,20a10.54,10.54,0,0,1,12.78-1l-2.11.08a1.15,1.15,0,0,0,0,2.3l5-.18a1.15,1.15,0,0,0,1.1-1.15l-.18-5a1.15,1.15,0,0,0-1.15-1.11h0a1.14,1.14,0,0,0-1.1,1.19l.08,2.26A12.58,12.58,0,0,0,28.54,15a12.81,12.81,0,0,0-13.1,15.82,1.17,1.17,0,0,0,1.4.85,1.2,1.2,0,0,0,.71-.52,1.16,1.16,0,0,0,.13-.87A10.52,10.52,0,0,1,20.84,20Zm19.72,5.11a1.15,1.15,0,0,0-2.1-.32,1.12,1.12,0,0,0-.14.87A10.52,10.52,0,0,1,22.2,36.87l2.26-.21a1.15,1.15,0,0,0-.21-2.29l-5,.45a1.15,1.15,0,0,0-1,1.25l.44,5a1.17,1.17,0,0,0,1.15,1.05H20a1.15,1.15,0,0,0,1-1.25l-.19-2.14A12.64,12.64,0,0,0,27.47,41l.65,0A12.82,12.82,0,0,0,40.56,25.14Zm-7.74,5.2a.48.48,0,0,1-.14.41l-1.37,1.36a.76.76,0,0,1-.24.18l-.29.09h-.2a4,4,0,0,1-.63-.07A4.34,4.34,0,0,1,28.88,32a8.36,8.36,0,0,1-1.43-.78,10.8,10.8,0,0,1-1.71-1.44,11.55,11.55,0,0,1-1.19-1.36,10.44,10.44,0,0,1-.76-1.19,7.15,7.15,0,0,1-.43-1,4.27,4.27,0,0,1-.19-.77,2.77,2.77,0,0,1-.05-.51c0-.12,0-.19,0-.2a1.18,1.18,0,0,1,.1-.3.61.61,0,0,1,.17-.24l1.37-1.36a.43.43,0,0,1,.33-.15.4.4,0,0,1,.23.08.66.66,0,0,1,.18.19L26.61,25a.55.55,0,0,1,.05.36.67.67,0,0,1-.18.33l-.5.51a.15.15,0,0,0,0,.06.25.25,0,0,0,0,.08,2.13,2.13,0,0,0,.18.49,4.7,4.7,0,0,0,.38.6A9.47,9.47,0,0,0,28,29a4.18,4.18,0,0,0,.6.39,2.35,2.35,0,0,0,.37.15l.13,0h.07l.07,0,.58-.59a.63.63,0,0,1,.43-.17.55.55,0,0,1,.28.06h0l2,1.17a.53.53,0,0,1,.26.34Z"/></g></g></svg>