<svg xmlns="http://www.w3.org/2000/svg" viewBox="0 0 56 56"><defs><style>.cls-1{fill:#ff5b3e;}</style></defs><title>Ресурс 14</title><g id="Слой_2" data-name="Слой 2"><g id="Слой_1-2" data-name="Слой 1"><path class="cls-1" d="M28,2.4A25.6,25.6,0,1,1,2.4,28,25.62,25.62,0,0,1,28,2.4M28,0A28,28,0,1,0,56,28,28,28,0,0,0,28,0Zm1.23,43.25H26.76a3,3,0,0,1-2.93-2.48l-.2-1.24c-.22-.08-.43-.17-.63-.26L22,40a3,3,0,0,1-3.82-.32L16.38,38a3,3,0,0,1-.32-3.82l.73-1c-.11-.23-.2-.46-.29-.69l-1.28-.22a3,3,0,0,1-2.47-2.93V26.83a3,3,0,0,1,2.48-2.93l1.21-.21c.09-.23.18-.47.28-.69L16,22a3,3,0,0,1,.32-3.83l1.75-1.74a3,3,0,0,1,3.82-.32l1,.73c.23-.11.46-.2.69-.29l.22-1.28a3,3,0,0,1,2.92-2.47h2.47a3,3,0,0,1,2.93,2.48l.2,1.21c.26.1.52.2.77.32l1-.74a2.88,2.88,0,0,1,1.71-.55,2.94,2.94,0,0,1,2.1.87l1.75,1.75A3,3,0,0,1,40,21.91l-.73,1c.1.22.19.45.28.69l1.25.21a2.93,2.93,0,0,1,2.46,2.94v2.45a3,3,0,0,1-2.48,2.93l-1.24.21c-.09.23-.18.46-.29.69l.74,1a3,3,0,0,1-.32,3.82l-1.75,1.75a3,3,0,0,1-2.1.87A2.93,2.93,0,0,1,34.08,40l-1-.73a7.13,7.13,0,0,1-.69.29l-.21,1.24A3,3,0,0,1,29.23,43.25Zm-6.45-6.86.67.35a9.58,9.58,0,0,0,1.64.68l.73.23.45,2.71a.5.5,0,0,0,.49.42h2.47a.5.5,0,0,0,.49-.42l.46-2.72.73-.22a10.12,10.12,0,0,0,1.7-.7l.67-.36L35.53,38a.49.49,0,0,0,.63-.05l1.75-1.75a.5.5,0,0,0,.05-.64l-1.6-2.24.35-.68a9.36,9.36,0,0,0,.71-1.69l.22-.73,2.72-.46a.5.5,0,0,0,.42-.49V26.77a.49.49,0,0,0-.41-.49h0l-2.71-.46-.23-.73a10.12,10.12,0,0,0-.7-1.7l-.36-.67L38,20.47a.48.48,0,0,0,0-.63l-1.75-1.75a.49.49,0,0,0-.62-.06l-2.26,1.61-.67-.36a9.87,9.87,0,0,0-1.76-.72l-.73-.22-.46-2.7a.5.5,0,0,0-.49-.42H26.71a.5.5,0,0,0-.49.42l-.46,2.74L25,18.6a9.83,9.83,0,0,0-1.68.71l-.68.37-2.24-1.61a.51.51,0,0,0-.63.05L18,19.87a.5.5,0,0,0-.05.64l1.61,2.27-.35.67a9.66,9.66,0,0,0-.69,1.69l-.22.74-2.7.46a.5.5,0,0,0-.42.49v2.46a.5.5,0,0,0,.42.49l2.74.47.22.72a9.6,9.6,0,0,0,.71,1.69l.37.68-1.6,2.23a.49.49,0,0,0,.05.63L19.88,38a.5.5,0,0,0,.63.06ZM28,35.28A7.29,7.29,0,1,1,35.29,28,7.29,7.29,0,0,1,28,35.28Zm0-12.09A4.81,4.81,0,1,0,32.81,28,4.81,4.81,0,0,0,28,23.19Z"/></g></g></svg>