<svg xmlns="http://www.w3.org/2000/svg" viewBox="0 0 56 56"><defs><style>.cls-1{fill:#ff5b3e;}</style></defs><title>Ресурс 12</title><g id="Слой_2" data-name="Слой 2"><g id="Слой_1-2" data-name="Слой 1"><path class="cls-1" d="M29.12,20.3H19.84a1.55,1.55,0,0,0,0,3.09h9.28a1.55,1.55,0,0,0,0-3.09Z"/><path class="cls-1" d="M29.12,26.46H19.84a1.54,1.54,0,0,0,0,3.08h9.28a1.54,1.54,0,1,0,0-3.08Z"/><path class="cls-1" d="M29.12,32.61H19.84a1.55,1.55,0,0,0,0,3.09h9.28a1.55,1.55,0,0,0,0-3.09Z"/><path class="cls-1" d="M36.16,20.3H33.69a1.55,1.55,0,0,0,0,3.09h2.47a1.55,1.55,0,0,0,0-3.09Z"/><path class="cls-1" d="M36.16,26.46H33.69a1.54,1.54,0,0,0,0,3.08h2.47a1.54,1.54,0,0,0,0-3.08Z"/><path class="cls-1" d="M36.16,32.61H33.69a1.55,1.55,0,0,0,0,3.09h2.47a1.55,1.55,0,0,0,0-3.09Z"/><path class="cls-1" d="M28,0A28,28,0,1,0,56,28,28,28,0,0,0,28,0Zm0,52.91A24.91,24.91,0,1,1,52.91,28,24.93,24.93,0,0,1,28,52.91Z"/><path class="cls-1" d="M35.93,13.23H20.07a6.85,6.85,0,0,0-6.84,6.84V35.93a6.85,6.85,0,0,0,6.84,6.84H35.93a6.85,6.85,0,0,0,6.84-6.84V20.07A6.85,6.85,0,0,0,35.93,13.23Zm3.75,22.7a3.75,3.75,0,0,1-3.75,3.75H20.07a3.75,3.75,0,0,1-3.75-3.75V20.07a3.75,3.75,0,0,1,3.75-3.75H35.93a3.75,3.75,0,0,1,3.75,3.75Z"/></g></g></svg>