<svg xmlns="http://www.w3.org/2000/svg" viewBox="0 0 56 56"><defs><style>.cls-1{fill:#ff5b3e;}</style></defs><title>Ресурс 15</title><g id="Слой_2" data-name="Слой 2"><g id="Слой_1-2" data-name="Слой 1"><path class="cls-1" d="M28,2.4A25.6,25.6,0,1,1,2.4,28,25.62,25.62,0,0,1,28,2.4M28,0A28,28,0,1,0,56,28,28,28,0,0,0,28,0ZM42.32,17.83a47,47,0,0,0-9.8-.91,46.86,46.86,0,0,0-9.79.91c-3.15.71-4.68,1.71-4.68,3.05v4.66c-3.72.35-9,1.29-9,3.7v5.89c0,1.33,1.53,2.33,4.68,3a47,47,0,0,0,9.8.91,46.86,46.86,0,0,0,9.79-.91c3.15-.71,4.68-1.71,4.68-3V30.46a34.63,34.63,0,0,0,4.37-.66c3.15-.71,4.68-1.71,4.68-3V20.88C47,19.54,45.47,18.54,42.32,17.83Zm-9.8.9c7.58,0,12.09,1.34,12.65,2.15-.34.48-2.12,1.16-5.14,1.63h0a50.34,50.34,0,0,1-7.47.51,50.44,50.44,0,0,1-7.47-.51h0c-3-.47-4.8-1.15-5.14-1.63C20.44,20.07,25,18.73,32.52,18.73Zm-10,14.47v4.07a49.88,49.88,0,0,1-6.09-.44V32.77A53.52,53.52,0,0,0,22.57,33.2Zm1.81,0a51.84,51.84,0,0,0,6.09-.42v4.06a49.88,49.88,0,0,1-6.09.44Zm-4.52-6.83V23a13.82,13.82,0,0,0,2.87.93c.39.08.8.17,1.23.24v4.05c-2.45-.47-3.87-1.07-4.1-1.49Zm5.91-1.92a54.83,54.83,0,0,0,5.85.39V28.9a54,54,0,0,1-5.85-.4Zm11.13,4.3h0c-1,.08-2.11.13-3.19.15h-.24V24.83a55,55,0,0,0,5.85-.39V28.5C38.55,28.59,37.75,28.68,36.9,28.74Zm-18.75-1.4,0,.08a.3.3,0,0,0,0,.08.64.64,0,0,0,.08.14.16.16,0,0,0,0,.07,1.3,1.3,0,0,0,.15.2l0,0a1.29,1.29,0,0,0,.16.17.46.46,0,0,1,.07.07l.15.12.09.07.16.11.11.07.18.11.11.07.25.12.08,0,.35.16.1,0,.29.11.15.06.28.09.17.06.3.09.17.05.34.09.17,0,.53.13.49.1.16,0,.35.07.2,0,.32.05.22,0,.32.05.24,0,.32,0,.25,0,.32,0,.26,0,.32,0,.28,0,.32,0,.28,0,.33,0,.29,0,.33,0,.3,0,.33,0,.3,0h.34l.31,0h2a47.21,47.21,0,0,1-8.45.68,49.76,49.76,0,0,1-7.7-.54h-.06c-2.86-.47-4.55-1.12-4.88-1.59C11.18,28.79,13.34,27.81,18.15,27.34Zm-7.34,7.75V31.36a14,14,0,0,0,2.87.93l1,.2v4C12.37,36.07,11,35.5,10.81,35.09Zm21.47,1.44v-4a16.23,16.23,0,0,0,3.86-1.14v3.74C35.92,35.5,34.59,36.07,32.28,36.53Zm8.81-8.32V24.16c.43-.07.84-.16,1.23-.24A14,14,0,0,0,45.19,23v3.73C45,27.14,43.54,27.74,41.09,28.21Z"/></g></g></svg>