<svg xmlns="http://www.w3.org/2000/svg" viewBox="0 0 56 56"><defs><style>.cls-1{fill:#ff5b3e;}</style></defs><title>Ресурс 16</title><g id="Слой_2" data-name="Слой 2"><g id="Слой_1-2" data-name="Слой 1"><path class="cls-1" d="M28,2.4A25.6,25.6,0,1,1,2.4,28,25.62,25.62,0,0,1,28,2.4M28,0A28,28,0,1,0,56,28,28,28,0,0,0,28,0Zm-.29,30.25,5.17-5.17a1.08,1.08,0,1,0-1.53-1.53L27,28l-1.76-1.76a1.08,1.08,0,1,0-1.53,1.53l2.53,2.53a1.07,1.07,0,0,0,.76.31h0A1.07,1.07,0,0,0,27.71,30.25ZM28,43.43l-.48-.21a18,18,0,0,1-6.06-5c-2.69-3.32-5.89-9.29-5.89-18.87v-.56l.45-.32A22.43,22.43,0,0,1,28,14.57a22.43,22.43,0,0,1,11.94,3.85l.45.32v.56C40.39,36.8,29,42.94,28.5,43.19ZM17.77,19.87C18,34.39,25.93,39.84,28,41a20.37,20.37,0,0,0,4.92-4.6c2.38-3.07,5.22-8.41,5.35-16.53A20.58,20.58,0,0,0,28,16.73,20.46,20.46,0,0,0,17.77,19.87Z"/></g></g></svg>