<svg xmlns="http://www.w3.org/2000/svg" viewBox="0 0 34 34"><defs><style>.cls-1{fill:#3882e7;}.cls-2{fill:#fff;}</style></defs><title>Ресурс 8</title><g id="Слой_2" data-name="Слой 2"><g id="Слой_1-2" data-name="Слой 1"><circle class="cls-1" cx="17" cy="17" r="17"/><path class="cls-2" d="M12,12.13V10.79h1.37v1.34Zm0,8.34V13.53h1.33v6.94Z"/><path class="cls-2" d="M15.4,23.21V13.53h1.24v.62l0,.52h0a2.37,2.37,0,0,1,.95-1A2.77,2.77,0,0,1,19,13.37a2.73,2.73,0,0,1,2.23,1A4,4,0,0,1,22,17a3.81,3.81,0,0,1-.88,2.64,2.89,2.89,0,0,1-2.26,1,2.44,2.44,0,0,1-2.15-1.18h0a3.28,3.28,0,0,1,.05.6v3.15ZM16.69,17a2.88,2.88,0,0,0,.53,1.72,1.67,1.67,0,0,0,1.43.73,1.82,1.82,0,0,0,1.43-.66A2.71,2.71,0,0,0,20.66,17a2.74,2.74,0,0,0-.55-1.8,1.73,1.73,0,0,0-1.42-.68,1.85,1.85,0,0,0-1.42.63A2.65,2.65,0,0,0,16.69,17Z"/></g></g></svg>