<svg xmlns="http://www.w3.org/2000/svg" viewBox="0 0 34 34"><defs><style>.cls-1{fill:#ff5b3e;}.cls-2{fill:#fff;}</style></defs><title>Ресурс 6</title><g id="Слой_2" data-name="Слой 2"><g id="Слой_1-2" data-name="Слой 1"><circle class="cls-1" cx="17" cy="17" r="17"/><path class="cls-2" d="M23.1,10.92H10.9A1.87,1.87,0,0,0,9,12.75v8.5a1.87,1.87,0,0,0,1.9,1.83H23.1A1.87,1.87,0,0,0,25,21.25v-8.5a1.87,1.87,0,0,0-1.9-1.83Zm0,10.55H10.9c-.15,0-.29-.1-.29-.22V13.87l5.52,4.66a.6.6,0,0,0,.4.15h.94a.6.6,0,0,0,.4-.15l5.52-4.66v7.38c0,.12-.14.22-.29.22ZM17,17.08l-5.37-4.55H22.37Z"/></g></g></svg>