<svg xmlns="http://www.w3.org/2000/svg" viewBox="0 0 46 46"><defs><style>.cls-1{fill:#3882e7;}.cls-2{fill:#fff;fill-rule:evenodd;}</style></defs><title>Ресурс 7</title><g id="Слой_2" data-name="Слой 2"><g id="Слой_1-2" data-name="Слой 1"><circle class="cls-1" cx="23" cy="23" r="23"/><path class="cls-2" d="M22.06,26.88a7.3,7.3,0,0,1-3.93-1.4c-.14-.11-.29-.22-.42-.34a1.18,1.18,0,0,1,1.34-1.93,3.37,3.37,0,0,1,.32.19,6.46,6.46,0,0,0,7.16.07,2,2,0,0,1,.7-.36,1.09,1.09,0,0,1,1.25.5,1.07,1.07,0,0,1-.07,1.4,5.77,5.77,0,0,1-2.09,1.34,9.75,9.75,0,0,1-2.36.53,3.59,3.59,0,0,0,.26.27l3.28,3.3a1.08,1.08,0,0,1,.24,1.28,1.29,1.29,0,0,1-1.21.76,1.16,1.16,0,0,1-.77-.4c-.83-.83-1.67-1.64-2.48-2.49-.23-.24-.35-.2-.55,0-.83.85-1.68,1.69-2.53,2.53a1,1,0,0,1-1.27.23,1.31,1.31,0,0,1-.75-1.19,1.21,1.21,0,0,1,.4-.8l3.24-3.25.24-.26Z"/><path class="cls-2" d="M23,23.12a4.81,4.81,0,1,1,4.84-4.75A4.8,4.8,0,0,1,23,23.12Zm2.39-4.82A2.35,2.35,0,1,0,23,20.66a2.34,2.34,0,0,0,2.34-2.36Z"/></g></g></svg>