<svg xmlns="http://www.w3.org/2000/svg" viewBox="0 0 13.01 13"><defs><style>.cls-1{fill:#b6c6d9;}</style></defs><title>Ресурс 4</title><g id="Слой_2" data-name="Слой 2"><g id="Слой_1-2" data-name="Слой 1"><path class="cls-1" d="M13,10.26a.61.61,0,0,1-.19.55L11,12.63a.92.92,0,0,1-.33.23,1.2,1.2,0,0,1-.39.13H10a6.42,6.42,0,0,1-.85-.09,6.75,6.75,0,0,1-1.43-.44A12.7,12.7,0,0,1,5.8,11.42,14.22,14.22,0,0,1,3.51,9.49,15.4,15.4,0,0,1,1.92,7.67a11.57,11.57,0,0,1-1-1.6A8.48,8.48,0,0,1,.32,4.73a6.19,6.19,0,0,1-.26-1A3.15,3.15,0,0,1,0,3c0-.17,0-.26,0-.28a1.17,1.17,0,0,1,.12-.39A1,1,0,0,1,.37,2L2.21.19A.58.58,0,0,1,2.65,0,.48.48,0,0,1,3,.1,1.2,1.2,0,0,1,3.2.36L4.67,3.15a.69.69,0,0,1,.07.49,1,1,0,0,1-.23.44l-.68.67a.36.36,0,0,0-.05.09.58.58,0,0,0,0,.1A2.37,2.37,0,0,0,4,5.6a5.64,5.64,0,0,0,.51.81,8.65,8.65,0,0,0,1,1.1,8.75,8.75,0,0,0,1.1,1A7.36,7.36,0,0,0,7.4,9a2.8,2.8,0,0,0,.5.2l.17,0,.09,0a.19.19,0,0,0,.09-.05L9,8.37a.85.85,0,0,1,.57-.22.71.71,0,0,1,.38.09h0l2.66,1.57a.65.65,0,0,1,.34.45Z"/></g></g></svg>