<svg xmlns="http://www.w3.org/2000/svg" viewBox="0 0 34 34"><defs><style>.cls-1{fill:#ff5b3e;}</style></defs><title>Ресурс 5</title><g id="Слой_2" data-name="Слой 2"><g id="Слой_1-2" data-name="Слой 1"><path class="cls-1" d="M34,17A17,17,0,1,1,17,0,17,17,0,0,1,34,17ZM23.49,20.76a.67.67,0,0,0-.34-.46l-2.66-1.57h0a.78.78,0,0,0-.37-.08.84.84,0,0,0-.58.22l-.78.8-.09,0-.09,0-.18,0a2.16,2.16,0,0,1-.49-.2,7,7,0,0,1-.81-.51A9.73,9.73,0,0,1,16,18a8.57,8.57,0,0,1-1-1.09,6.25,6.25,0,0,1-.51-.8,2.55,2.55,0,0,1-.25-.67.58.58,0,0,1,0-.1.19.19,0,0,1,.05-.09l.67-.67a.91.91,0,0,0,.24-.44.7.7,0,0,0-.07-.48l-1.47-2.8a1.14,1.14,0,0,0-.24-.25.52.52,0,0,0-.32-.11.62.62,0,0,0-.44.2l-1.83,1.83a1,1,0,0,0-.23.32,1.17,1.17,0,0,0-.12.39s0,.11,0,.28a3.15,3.15,0,0,0,.06.68,6.19,6.19,0,0,0,.26,1,8.48,8.48,0,0,0,.58,1.34,11.57,11.57,0,0,0,1,1.6A15.4,15.4,0,0,0,14,20a14.11,14.11,0,0,0,2.29,1.92A11.94,11.94,0,0,0,18.22,23a6.58,6.58,0,0,0,1.43.44,6.31,6.31,0,0,0,.84.09h.27a1.72,1.72,0,0,0,.39-.12,1,1,0,0,0,.32-.24l1.83-1.81a.61.61,0,0,0,.19-.55Z"/></g></g></svg>