<svg xmlns="http://www.w3.org/2000/svg" viewBox="0 0 46 46"><defs><style>.cls-1{fill:#3882e7;}.cls-2{fill:#fff;}</style></defs><title>Ресурс 3</title><g id="Слой_2" data-name="Слой 2"><g id="Слой_1-2" data-name="Слой 1"><circle class="cls-1" cx="23" cy="23" r="23"/><path class="cls-2" d="M13.35,22.64,18,24.36l1.79,5.74a.54.54,0,0,0,.86.26l2.57-2.1a.77.77,0,0,1,.93,0l4.63,3.36a.54.54,0,0,0,.85-.33L33,15a.55.55,0,0,0-.73-.62l-18.91,7.3a.54.54,0,0,0,0,1Zm6.11.81,9-5.55a.16.16,0,0,1,.19.25l-7.43,6.91a1.56,1.56,0,0,0-.48.92l-.25,1.88a.23.23,0,0,1-.45,0l-1-3.42a.9.9,0,0,1,.4-1Z"/></g></g></svg>