<svg xmlns="http://www.w3.org/2000/svg" viewBox="0 0 46 46"><defs><style>.cls-1{fill:#3882e7;}.cls-2{fill:#fff;}</style></defs><title>Ресурс 4</title><g id="Слой_2" data-name="Слой 2"><g id="Слой_1-2" data-name="Слой 1"><circle class="cls-1" cx="23" cy="23" r="23"/><path class="cls-2" d="M32,17.42a7.47,7.47,0,0,1-2.12.58,3.72,3.72,0,0,0,1.63-2,7.39,7.39,0,0,1-2.36.89,3.69,3.69,0,0,0-6.38,2.53,3.86,3.86,0,0,0,.1.84,10.47,10.47,0,0,1-7.62-3.86,3.7,3.7,0,0,0,1.14,4.93,3.47,3.47,0,0,1-1.66-.46v.05a3.69,3.69,0,0,0,3,3.62,3.93,3.93,0,0,1-1,.13,4,4,0,0,1-.69-.07,3.71,3.71,0,0,0,3.45,2.57,7.49,7.49,0,0,1-4.59,1.57,6.4,6.4,0,0,1-.88-.05,10.5,10.5,0,0,0,16.16-8.84v-.48A7.3,7.3,0,0,0,32,17.42Z"/></g></g></svg>