<svg xmlns="http://www.w3.org/2000/svg" viewBox="0 0 46 46"><defs><style>.cls-1{fill:#3882e7;}.cls-2{fill:#fff;}</style></defs><title>Ресурс 5</title><g id="Слой_2" data-name="Слой 2"><g id="Слой_1-2" data-name="Слой 1"><circle class="cls-1" cx="23" cy="23" r="23"/><path class="cls-2" d="M33.4,27.84a.46.46,0,0,0-.07-.14,10.75,10.75,0,0,0-2.09-2.42l0,0h0c-.47-.45-.77-.75-.89-.9a.83.83,0,0,1-.15-.89,7.54,7.54,0,0,1,1-1.43l.71-.93c1.27-1.68,1.81-2.76,1.65-3.22l-.07-.11a.58.58,0,0,0-.34-.18,1.56,1.56,0,0,0-.7,0l-3.15,0a.34.34,0,0,0-.22,0l-.14,0-.06,0,0,0a.34.34,0,0,0-.12.12.5.5,0,0,0-.11.19,20,20,0,0,1-1.17,2.46c-.27.45-.52.85-.75,1.18a6.74,6.74,0,0,1-.57.73,4.38,4.38,0,0,1-.41.38.46.46,0,0,1-.29.12l-.19,0a.78.78,0,0,1-.24-.27,1.28,1.28,0,0,1-.13-.43c0-.17,0-.32,0-.44s0-.3,0-.53,0-.38,0-.46c0-.28,0-.58,0-.9s0-.58,0-.77,0-.39,0-.61a2.91,2.91,0,0,0,0-.49,2.53,2.53,0,0,0-.12-.36.56.56,0,0,0-.22-.26,1.42,1.42,0,0,0-.37-.15A8.17,8.17,0,0,0,22.6,17a7.48,7.48,0,0,0-2.61.26,1.34,1.34,0,0,0-.42.33q-.2.24-.06.27a1.35,1.35,0,0,1,.94.47l.06.13a2,2,0,0,1,.15.5,3.89,3.89,0,0,1,.1.8,7.78,7.78,0,0,1,0,1.37c0,.38-.07.68-.1.89a1.54,1.54,0,0,1-.15.51,1.82,1.82,0,0,1-.13.24.17.17,0,0,1-.06.06.93.93,0,0,1-.29.05.69.69,0,0,1-.37-.15,2.47,2.47,0,0,1-.46-.42,7,7,0,0,1-.53-.75,11.62,11.62,0,0,1-.61-1.14l-.18-.32c-.11-.2-.26-.5-.45-.89s-.35-.77-.5-1.14a.79.79,0,0,0-.26-.35l-.06,0a.52.52,0,0,0-.17-.09,1.17,1.17,0,0,0-.25-.07l-3,0a.77.77,0,0,0-.63.21l0,.06a.4.4,0,0,0,0,.18.93.93,0,0,0,.07.29c.44,1,.91,2,1.43,3s1,1.73,1.34,2.31.77,1.14,1.16,1.66.66.85.78,1a3.64,3.64,0,0,0,.31.33l.27.26a5.31,5.31,0,0,0,.77.63,13,13,0,0,0,1.13.73,6.36,6.36,0,0,0,1.44.58,5,5,0,0,0,1.6.18H24a.91.91,0,0,0,.58-.24l0-.06a.55.55,0,0,0,.08-.2,1,1,0,0,0,0-.3,3.7,3.7,0,0,1,.07-.85,2.5,2.5,0,0,1,.19-.57,1.39,1.39,0,0,1,.23-.32.91.91,0,0,1,.19-.16l.09,0a.7.7,0,0,1,.62.17,3.54,3.54,0,0,1,.66.63c.21.26.46.54.75.85a5,5,0,0,0,.77.7l.22.14a4.08,4.08,0,0,0,.57.24,1.2,1.2,0,0,0,.61.05l2.81,0a1.27,1.27,0,0,0,.64-.14.53.53,0,0,0,.28-.3.77.77,0,0,0,0-.37.87.87,0,0,0-.08-.29Z"/></g></g></svg>