<svg xmlns="http://www.w3.org/2000/svg" viewBox="0 0 46 46"><defs><style>.cls-1{fill:#3882e7;}.cls-2{fill:#fff;fill-rule:evenodd;}</style></defs><title>Ресурс 6</title><g id="Слой_2" data-name="Слой 2"><g id="Слой_1-2" data-name="Слой 1"><circle class="cls-1" cx="23" cy="23" r="23"/><path class="cls-2" d="M34,22.72A10.82,10.82,0,0,1,18,32.1L12,34,14,28.25a10.62,10.62,0,0,1-1.55-5.53,10.8,10.8,0,0,1,21.6,0Zm-10.8-9a9.05,9.05,0,0,0-9.08,9A8.9,8.9,0,0,0,15.85,28l-1.13,3.35,3.48-1.11a9,9,0,1,0,5-16.53Zm5.45,11.48c-.06-.11-.24-.18-.5-.31s-1.57-.77-1.81-.86-.42-.13-.6.14-.68.85-.84,1-.31.19-.57.06A7.19,7.19,0,0,1,22.2,24a7.82,7.82,0,0,1-1.47-1.82c-.16-.26,0-.41.11-.54s.27-.3.4-.46a1.79,1.79,0,0,0,.27-.44.5.5,0,0,0,0-.46c-.06-.13-.59-1.42-.81-1.95s-.44-.43-.6-.43-.33,0-.51,0a1,1,0,0,0-.7.33,3,3,0,0,0-.93,2.19A5.07,5.07,0,0,0,19,23.06a10.82,10.82,0,0,0,4.52,4c2.7,1,2.7.7,3.18.65a2.64,2.64,0,0,0,1.79-1.25,2.1,2.1,0,0,0,.15-1.24Z"/></g></g></svg>